<svg version="1.1" id="Layer_1" xmlns="http://www.w3.org/2000/svg" xmlns:xlink="http://www.w3.org/1999/xlink" x="0px" y="0px"
	 width="100%" viewBox="0 0 512 512" enable-background="new 0 0 512 512" xml:space="preserve">
<path fill="#000000" opacity="1.000000" stroke="none" 
	d="
M218.000000,513.000000 
	C145.696411,513.000000 73.392830,513.000000 1.044623,513.000000 
	C1.044623,342.433289 1.044623,171.866547 1.044623,1.000000 
	C109.688499,1.000000 218.377274,1.000000 327.700989,1.336814 
	C322.102966,5.802317 317.600189,11.460168 313.671692,18.033224 
	C311.891632,19.918816 310.279755,21.574900 308.991364,23.452911 
	C301.697266,34.085094 294.378784,44.702938 287.257843,55.451042 
	C269.971466,81.542549 249.811981,105.163841 225.950256,125.412605 
	C212.881149,136.502914 199.368698,147.157303 185.389908,157.068573 
	C164.904800,171.593002 143.037552,183.915787 119.987938,193.957855 
	C104.653008,200.638840 89.122314,206.878250 73.594070,213.102814 
	C69.254227,214.842468 65.909218,217.121262 64.510559,221.957275 
	C54.740940,224.828018 46.569283,229.312668 40.630074,237.567825 
	C28.180189,254.872513 26.533670,274.502258 29.290728,294.480316 
	C33.235149,323.062195 44.682995,348.301483 66.540596,368.044769 
	C83.681778,383.527924 102.643524,390.509613 125.655632,380.811340 
	C129.412369,380.404114 132.851959,380.268250 136.066345,379.346802 
	C146.415909,376.380066 156.682434,373.123657 166.997391,370.382507 
	C167.747711,374.337555 168.343460,377.924194 169.237137,381.435059 
	C177.142166,412.489960 184.597458,443.704132 196.168350,473.654327 
	C200.195145,484.077332 205.810181,493.910095 211.046661,503.829346 
	C212.813858,507.176880 215.651535,509.959320 218.000000,513.000000 
z"/>
<path fill="#000000" opacity="1.000000" stroke="none" 
	d="
M347.000000,1.000002 
	C402.308105,1.000000 457.616211,1.000000 512.962158,1.000000 
	C512.962158,171.563599 512.962158,342.127197 512.962158,513.000000 
	C420.645477,513.000000 328.290588,513.000000 235.435471,512.635864 
	C236.490433,511.433289 238.061523,510.622864 239.598312,509.751923 
	C251.419159,503.052765 261.321259,493.983734 270.299194,483.969849 
	C273.174713,480.762482 275.107513,476.452118 276.584625,472.328674 
	C277.812347,468.901428 277.538696,465.225677 273.963440,462.507355 
	C266.867340,457.112274 259.919037,451.518799 253.022919,445.869049 
	C252.034027,445.058899 251.185989,443.511169 251.104797,442.251129 
	C250.603958,434.477356 249.966049,426.680878 250.117386,418.906464 
	C250.241425,412.533264 247.362534,408.261047 242.792938,404.476715 
	C240.399307,402.494385 238.311935,400.142273 236.044983,397.537811 
	C236.040955,390.220795 235.075302,383.126617 236.378403,376.476990 
	C237.886505,368.781128 241.390640,361.476440 244.404251,353.828247 
	C252.906784,352.770325 261.026459,351.206177 269.161011,351.124390 
	C298.030334,350.833984 326.852325,350.533325 355.533386,355.761871 
	C378.491302,359.947144 400.889709,365.899414 423.190826,372.537109 
	C435.121124,376.088043 446.887421,381.459198 460.263855,377.830444 
	C469.817474,374.830261 475.718292,368.969086 479.294952,359.726288 
	C485.218842,344.417816 485.367706,328.507111 485.923096,312.576752 
	C486.042572,309.150421 485.297668,305.697754 485.006165,302.252533 
	C484.297150,293.873230 484.394043,285.338959 482.780182,277.139923 
	C478.608185,255.944382 474.195038,234.769119 468.949677,213.818222 
	C460.401550,179.675537 448.011841,146.806702 432.850342,115.090828 
	C424.353210,97.315956 414.528168,80.157677 404.856567,62.971916 
	C401.268616,56.596272 396.409882,50.935760 392.073914,44.598457 
	C388.469238,39.742500 385.010712,35.163235 381.355072,30.747101 
	C373.429901,21.173117 364.879761,12.278795 353.987366,5.945552 
	C351.530365,4.516960 349.322540,2.659852 347.000000,1.000002 
z"/>
<path fill="#3E4E5C" opacity="1.000000" stroke="none" 
	d="
M236.086243,397.957153 
	C238.311935,400.142273 240.399307,402.494385 242.792938,404.476715 
	C247.362534,408.261047 250.241425,412.533264 250.117386,418.906464 
	C249.966049,426.680878 250.603958,434.477356 251.104797,442.251129 
	C251.185989,443.511169 252.034027,445.058899 253.022919,445.869049 
	C259.919037,451.518799 266.867340,457.112274 273.963440,462.507355 
	C277.538696,465.225677 277.812347,468.901428 276.584625,472.328674 
	C275.107513,476.452118 273.174713,480.762482 270.299194,483.969849 
	C261.321259,493.983734 251.419159,503.052765 239.598312,509.751923 
	C238.061523,510.622864 236.490433,511.433289 234.967621,512.635864 
	C229.645065,513.000000 224.290146,513.000000 218.467606,513.000000 
	C215.651535,509.959320 212.813858,507.176880 211.046661,503.829346 
	C205.810181,493.910095 200.195145,484.077332 196.168350,473.654327 
	C184.597458,443.704132 177.142166,412.489960 169.237137,381.435059 
	C168.343460,377.924194 167.747711,374.337555 166.963593,370.379059 
	C166.913391,369.972076 166.923996,369.904694 167.281189,370.014648 
	C176.112106,373.594543 184.577927,377.083893 193.061310,380.530029 
	C207.397079,386.353516 221.744003,392.149567 236.086243,397.957153 
z"/>
<path fill="#426885" opacity="1.000000" stroke="none" 
	d="
M346.531738,1.000002 
	C349.322540,2.659852 351.530365,4.516960 353.987366,5.945552 
	C364.879761,12.278795 373.429901,21.173117 381.355072,30.747101 
	C385.010712,35.163235 388.469238,39.742500 391.708771,44.505665 
	C390.300842,44.386326 389.195068,44.026371 388.102722,43.629326 
	C372.583649,37.988369 362.642517,42.217899 355.833130,57.238636 
	C350.783783,68.376808 349.520416,80.259972 349.051758,92.233299 
	C348.091003,116.779449 351.332092,140.958389 355.532166,165.009232 
	C345.436157,164.269348 336.140778,165.730209 326.948914,168.905334 
	C325.812439,165.573135 324.769318,162.595062 323.962524,159.554306 
	C314.952332,125.595665 308.619965,91.239082 308.776642,55.484627 
	C310.461304,44.129635 312.097198,33.230995 313.689606,22.326004 
	C313.902313,20.869213 313.894745,19.380257 313.989197,17.906197 
	C317.600189,11.460168 322.102966,5.802317 328.167969,1.336814 
	C334.021149,1.000000 340.042297,1.000000 346.531738,1.000002 
z"/>
<path fill="#5992BD" opacity="1.000000" stroke="none" 
	d="
M308.714264,55.938995 
	C308.619965,91.239082 314.952332,125.595665 323.962524,159.554306 
	C324.769318,162.595062 325.812439,165.573135 326.928467,169.294235 
	C327.193817,170.829987 327.151794,171.687820 327.377075,172.468475 
	C336.431000,203.838943 347.628418,234.409470 361.636902,263.923004 
	C362.187958,265.083984 363.119812,266.064178 363.942505,267.488953 
	C376.998566,296.206787 392.581299,322.983795 412.565613,347.040253 
	C420.227356,356.263245 428.441254,364.944031 439.278198,371.206116 
	C446.335419,373.563263 453.115662,375.715668 459.895905,377.868103 
	C446.887421,381.459198 435.121124,376.088043 423.190826,372.537109 
	C400.889709,365.899414 378.491302,359.947144 355.533386,355.761871 
	C326.852325,350.533325 298.030334,350.833984 269.161011,351.124390 
	C261.026459,351.206177 252.906784,352.770325 244.132935,353.565491 
	C242.828232,353.430511 242.143982,353.241577 241.517426,353.359406 
	C223.078537,356.826691 204.603760,360.123322 186.233551,363.924774 
	C179.665787,365.283875 173.353104,367.875580 166.923996,369.904694 
	C166.923996,369.904694 166.913391,369.972076 166.947174,369.975525 
	C156.682434,373.123657 146.415909,376.380066 136.066345,379.346802 
	C132.851959,380.268250 129.412369,380.404114 125.504166,380.516846 
	C119.204491,373.283447 112.594559,366.983704 107.908981,359.482025 
	C91.934662,333.906860 80.983337,306.008545 73.077217,277.031433 
	C69.333916,263.311707 67.578621,249.049545 65.313927,234.977997 
	C70.496361,233.533127 75.383049,232.407059 80.063148,230.710953 
	C110.624290,219.635315 140.292084,206.614059 168.484360,190.309143 
	C216.980072,162.261734 258.258575,126.247467 290.775879,80.433067 
	C296.632660,72.181305 302.728699,64.099350 308.714264,55.938995 
z"/>
<path fill="#3E4E5C" opacity="1.000000" stroke="none" 
	d="
M64.922638,235.033127 
	C67.578621,249.049545 69.333916,263.311707 73.077217,277.031433 
	C80.983337,306.008545 91.934662,333.906860 107.908981,359.482025 
	C112.594559,366.983704 119.204491,373.283447 125.083923,380.428589 
	C102.643524,390.509613 83.681778,383.527924 66.540596,368.044769 
	C44.682995,348.301483 33.235149,323.062195 29.290728,294.480316 
	C26.533670,274.502258 28.180189,254.872513 40.630074,237.567825 
	C46.569283,229.312668 54.740940,224.828018 64.550751,222.383240 
	C64.951668,226.860916 64.937149,230.947021 64.922638,235.033127 
z"/>
<path fill="#63A2D1" opacity="1.000000" stroke="none" 
	d="
M65.313927,234.977997 
	C64.937149,230.947021 64.951668,226.860916 64.925980,222.348846 
	C65.909218,217.121262 69.254227,214.842468 73.594070,213.102814 
	C89.122314,206.878250 104.653008,200.638840 119.987938,193.957855 
	C143.037552,183.915787 164.904800,171.593002 185.389908,157.068573 
	C199.368698,147.157303 212.881149,136.502914 225.950256,125.412605 
	C249.811981,105.163841 269.971466,81.542549 287.257843,55.451042 
	C294.378784,44.702938 301.697266,34.085094 308.991364,23.452911 
	C310.279755,21.574900 311.891632,19.918816 313.671692,18.033224 
	C313.894745,19.380257 313.902313,20.869213 313.689606,22.326004 
	C312.097198,33.230995 310.461304,44.129635 308.776642,55.484627 
	C302.728699,64.099350 296.632660,72.181305 290.775879,80.433067 
	C258.258575,126.247467 216.980072,162.261734 168.484360,190.309143 
	C140.292084,206.614059 110.624290,219.635315 80.063148,230.710953 
	C75.383049,232.407059 70.496361,233.533127 65.313927,234.977997 
z"/>
<path fill="#487190" opacity="1.000000" stroke="none" 
	d="
M460.263855,377.830444 
	C453.115662,375.715668 446.335419,373.563263 439.213806,370.854431 
	C438.324249,369.097809 437.932709,367.792023 437.205139,366.712769 
	C415.318634,334.247101 398.544952,299.190948 384.365967,262.804474 
	C383.681458,261.047882 382.189209,259.606079 381.186188,257.789612 
	C381.566589,257.136566 381.833923,256.711609 382.413452,256.147247 
	C398.905853,240.870636 404.651520,222.428925 398.093048,201.286926 
	C391.776520,180.924774 377.168701,169.192551 356.078491,165.497604 
	C356.073883,165.324066 355.998230,164.985199 355.998230,164.985199 
	C351.332092,140.958389 348.091003,116.779449 349.051758,92.233299 
	C349.520416,80.259972 350.783783,68.376808 355.833130,57.238636 
	C362.642517,42.217899 372.583649,37.988369 388.102722,43.629326 
	C389.195068,44.026371 390.300842,44.386326 391.765533,44.856323 
	C396.409882,50.935760 401.268616,56.596272 404.856567,62.971916 
	C414.528168,80.157677 424.353210,97.315956 432.850342,115.090828 
	C448.011841,146.806702 460.401550,179.675537 468.949677,213.818222 
	C474.195038,234.769119 478.608185,255.944382 482.780182,277.139923 
	C484.394043,285.338959 484.297150,293.873230 485.006165,302.252533 
	C485.297668,305.697754 486.042572,309.150421 485.923096,312.576752 
	C485.367706,328.507111 485.218842,344.417816 479.294952,359.726288 
	C475.718292,368.969086 469.817474,374.830261 460.263855,377.830444 
z"/>
<path fill="#323F4B" opacity="1.000000" stroke="none" 
	d="
M167.281189,370.014648 
	C173.353104,367.875580 179.665787,365.283875 186.233551,363.924774 
	C204.603760,360.123322 223.078537,356.826691 241.517426,353.359406 
	C242.143982,353.241577 242.828232,353.430511 243.756897,353.739197 
	C241.390640,361.476440 237.886505,368.781128 236.378403,376.476990 
	C235.075302,383.126617 236.040955,390.220795 236.044968,397.537811 
	C221.744003,392.149567 207.397079,386.353516 193.061310,380.530029 
	C184.577927,377.083893 176.112106,373.594543 167.281189,370.014648 
z"/>
<path fill="#D8DADB" opacity="1.000000" stroke="none" 
	d="
M382.101257,256.286652 
	C381.833923,256.711609 381.566589,257.136566 380.865967,257.915161 
	C374.913208,261.222015 369.393738,264.175293 363.874268,267.128601 
	C363.119812,266.064178 362.187958,265.083984 361.636902,263.923004 
	C347.628418,234.409470 336.431000,203.838943 327.377075,172.468475 
	C327.151794,171.687820 327.193817,170.829987 327.131592,169.619263 
	C336.140778,165.730209 345.436157,164.269348 355.532166,165.009232 
	C355.998230,164.985199 356.073883,165.324066 356.150208,165.905029 
	C359.587158,180.694153 362.387817,195.065033 366.456451,209.067474 
	C371.079865,224.979080 376.836975,240.561264 382.101257,256.286652 
z"/>
<path fill="#426986" opacity="1.000000" stroke="none" 
	d="
M363.942505,267.488953 
	C369.393738,264.175293 374.913208,261.222015 380.752869,258.143219 
	C382.189209,259.606079 383.681458,261.047882 384.365967,262.804474 
	C398.544952,299.190948 415.318634,334.247101 437.205139,366.712769 
	C437.932709,367.792023 438.324249,369.097809 438.936829,370.649719 
	C428.441254,364.944031 420.227356,356.263245 412.565613,347.040253 
	C392.581299,322.983795 376.998566,296.206787 363.942505,267.488953 
z"/>
<path fill="#EAECED" opacity="1.000000" stroke="none" 
	d="
M382.413452,256.147247 
	C376.836975,240.561264 371.079865,224.979080 366.456451,209.067474 
	C362.387817,195.065033 359.587158,180.694153 356.154785,166.078552 
	C377.168701,169.192551 391.776520,180.924774 398.093048,201.286926 
	C404.651520,222.428925 398.905853,240.870636 382.413452,256.147247 
z"/>
</svg>